<svg width="919" height="2314" viewBox="0 0 919 2314" fill="none" xmlns="http://www.w3.org/2000/svg">
<rect width="919" height="2314" fill="#878787"/>
<mask id="path-1-inside-1_802_399" fill="white">
<path fill-rule="evenodd" clip-rule="evenodd" d="M648 345C648 344.822 648 344.644 648 344.467C648 159.746 505.179 10 329 10C152.821 10 10 159.746 10 344.467C10 344.644 10.0001 344.822 10.0004 345H648Z"/>
</mask>
<path fill-rule="evenodd" clip-rule="evenodd" d="M648 345C648 344.822 648 344.644 648 344.467C648 159.746 505.179 10 329 10C152.821 10 10 159.746 10 344.467C10 344.644 10.0001 344.822 10.0004 345H648Z" fill="#61D270"/>
<path d="M648 345V355H657.986L658 345.014L648 345ZM10.0004 345L0.000408158 345.015L0.0152731 355H10.0004V345ZM638 344.467C638 344.664 638 344.816 638 344.986L658 345.014C658 344.828 658 344.625 658 344.467H638ZM329 20C499.215 20 638 164.817 638 344.467H658C658 154.674 511.143 0 329 0V20ZM20 344.467C20 164.817 158.785 20 329 20V0C146.857 0 0 154.674 0 344.467H20ZM20.0004 344.985C20.0001 344.812 20 344.639 20 344.467H0C0 344.649 0.000136087 344.832 0.000408158 345.015L20.0004 344.985ZM10.0004 355H648V335H10.0004V355Z" fill="black" mask="url(#path-1-inside-1_802_399)"/>
<mask id="path-3-inside-2_802_399" fill="white">
<path fill-rule="evenodd" clip-rule="evenodd" d="M432 355H113.5L10 406H432H432.5H855L751.378 355H432.5H432Z"/>
</mask>
<path fill-rule="evenodd" clip-rule="evenodd" d="M432 355H113.5L10 406H432H432.5H855L751.378 355H432.5H432Z" fill="#61D270"/>
<path d="M113.5 355V345H111.17L109.08 346.03L113.5 355ZM10 406L5.57994 397.03L10 416V406ZM855 406V416L859.416 397.028L855 406ZM751.378 355L755.793 346.028L753.705 345H751.378V355ZM113.5 365H432V345H113.5V365ZM14.4201 414.97L117.92 363.97L109.08 346.03L5.57994 397.03L14.4201 414.97ZM432 396H10V416H432V396ZM432 416H432.5V396H432V416ZM432.5 416H855V396H432.5V416ZM859.416 397.028L755.793 346.028L746.962 363.972L850.584 414.972L859.416 397.028ZM751.378 345H432.5V365H751.378V345ZM432.5 345H432V365H432.5V345Z" fill="black" mask="url(#path-3-inside-2_802_399)"/>
<mask id="path-5-inside-3_802_399" fill="white">
<path fill-rule="evenodd" clip-rule="evenodd" d="M84 452C84 432.118 67.4345 416 47 416C26.5655 416 10 432.118 10 452H84Z"/>
</mask>
<path fill-rule="evenodd" clip-rule="evenodd" d="M84 452C84 432.118 67.4345 416 47 416C26.5655 416 10 432.118 10 452H84Z" fill="#61D270"/>
<path d="M84 452V462H94V452H84ZM10 452H0V462H10V452ZM47 426C62.1717 426 74 437.897 74 452H94C94 426.338 72.6973 406 47 406V426ZM20 452C20 437.897 31.8283 426 47 426V406C21.3027 406 0 426.338 0 452H20ZM10 462H84V442H10V462Z" fill="black" mask="url(#path-5-inside-3_802_399)"/>
<mask id="path-7-inside-4_802_399" fill="white">
<path fill-rule="evenodd" clip-rule="evenodd" d="M432.5 539C665.84 539 855 504.809 855 462.631C855 462.421 854.995 462.21 854.986 462H10.0141C10.0047 462.21 10 462.421 10 462.631C10 504.809 199.16 539 432.5 539Z"/>
</mask>
<path fill-rule="evenodd" clip-rule="evenodd" d="M432.5 539C665.84 539 855 504.809 855 462.631C855 462.421 854.995 462.21 854.986 462H10.0141C10.0047 462.21 10 462.421 10 462.631C10 504.809 199.16 539 432.5 539Z" fill="#61D270"/>
<path d="M854.986 462L864.976 461.553L864.549 452H854.986V462ZM10.0141 462V452H0.451943L0.024141 461.553L10.0141 462ZM845 462.631C845 463.873 844.336 466.517 839.796 470.527C835.302 474.497 828.092 478.793 817.868 483.162C797.499 491.867 767.411 499.934 729.474 506.792C653.763 520.477 548.762 529 432.5 529V549C549.578 549 655.827 540.428 733.031 526.473C771.552 519.51 803.337 511.121 825.728 501.553C836.883 496.785 846.275 491.49 853.037 485.517C859.753 479.584 865 471.933 865 462.631H845ZM844.996 462.447C844.999 462.508 845 462.569 845 462.631H865C865 462.272 864.992 461.912 864.976 461.553L844.996 462.447ZM854.986 452H10.0141V472H854.986V452ZM20 462.631C20 462.57 20.0014 462.509 20.0041 462.447L0.024141 461.553C0.00806054 461.912 0 462.271 0 462.631H20ZM432.5 529C316.238 529 211.237 520.477 135.526 506.792C97.5891 499.934 67.5008 491.867 47.1319 483.162C36.9079 478.793 29.6984 474.497 25.204 470.527C20.6641 466.517 20 463.873 20 462.631H0C0 471.933 5.24718 479.584 11.9634 485.517C18.7252 491.49 28.1167 496.785 39.2724 501.553C61.6628 511.121 93.4482 519.51 131.969 526.473C209.173 540.428 315.422 549 432.5 549V529Z" fill="black" mask="url(#path-7-inside-4_802_399)"/>
<path d="M157 656.5C157 685.275 148.747 711.113 135.657 729.628C122.559 748.154 104.93 759 86 759C67.0701 759 49.4407 748.154 36.3426 729.628C23.2534 711.113 15 685.275 15 656.5C15 627.725 23.2534 601.887 36.3426 583.372C49.4407 564.846 67.0701 554 86 554C104.93 554 122.559 564.846 135.657 583.372C148.747 601.887 157 627.725 157 656.5Z" fill="white" stroke="black" stroke-width="10"/>
<ellipse cx="46" cy="835" rx="36" ry="61" fill="black"/>
<path d="M60.654 956.985C61.0734 963.014 61.1118 969.159 60.7677 975.215L35.5 967L60.654 956.985Z" fill="white"/>
<path d="M259 1161C259 1226.02 204.531 1279 137 1279C69.4692 1279 15 1226.02 15 1161C15 1095.98 69.4692 1043 137 1043C204.531 1043 259 1095.98 259 1161Z" fill="white" stroke="black" stroke-width="10"/>
<rect x="15" y="1299" width="195.814" height="163.859" fill="white" stroke="black" stroke-width="10"/>
<path d="M206.92 1485.62C210.591 1521.61 201.392 1548.86 185.53 1569.69C168.532 1592.01 143.572 1607.35 117.448 1617.85C91.3564 1628.33 64.456 1633.85 44.0115 1636.74C33.8051 1638.18 25.2455 1638.96 19.2505 1639.38C17.6426 1639.49 16.2198 1639.58 15 1639.65L15 1544.26C70.6975 1536.96 119.701 1521.77 155.034 1508.28C173.172 1501.35 187.73 1494.86 197.769 1490.09C201.437 1488.35 204.503 1486.84 206.92 1485.62Z" fill="white" stroke="black" stroke-width="10"/>
<path d="M30.0721 1654.86H130.072C102.434 1720.86 104.714 1764.14 130.072 1848.86H30.0721C5.162 1762.64 1.51854 1718.63 30.0721 1654.86Z" fill="black"/>
<mask id="path-16-inside-5_802_399" fill="white">
<path fill-rule="evenodd" clip-rule="evenodd" d="M135.649 1948.86C139.721 1940.68 142 1931.52 142 1921.86C142 1887.07 112.451 1858.86 76 1858.86C39.5492 1858.86 10 1887.07 10 1921.86C10 1931.52 12.2788 1940.68 16.3514 1948.86H135.649Z"/>
</mask>
<path fill-rule="evenodd" clip-rule="evenodd" d="M135.649 1948.86C139.721 1940.68 142 1931.52 142 1921.86C142 1887.07 112.451 1858.86 76 1858.86C39.5492 1858.86 10 1887.07 10 1921.86C10 1931.52 12.2788 1940.68 16.3514 1948.86H135.649Z" fill="white"/>
<path d="M135.649 1948.86V1958.86H141.842L144.601 1953.31L135.649 1948.86ZM16.3514 1948.86L7.39878 1953.31L10.1581 1958.86H16.3514V1948.86ZM132 1921.86C132 1929.93 130.101 1937.56 126.696 1944.4L144.601 1953.31C149.342 1943.79 152 1933.11 152 1921.86H132ZM76 1868.86C107.371 1868.86 132 1893.02 132 1921.86H152C152 1881.11 117.53 1848.86 76 1848.86V1868.86ZM20 1921.86C20 1893.02 44.6286 1868.86 76 1868.86V1848.86C34.4699 1848.86 0 1881.11 0 1921.86H20ZM25.304 1944.4C21.8992 1937.56 20 1929.93 20 1921.86H0C0 1933.11 2.6584 1943.79 7.39878 1953.31L25.304 1944.4ZM16.3514 1958.86H135.649V1938.86H16.3514V1958.86Z" fill="black" mask="url(#path-16-inside-5_802_399)"/>
<path d="M112.286 2029.86H15V1964.41C44.096 1967.36 63.685 1967.4 98.054 1964.12C104.684 1973.96 108.585 1982.66 110.681 1992.68C112.771 2002.67 113.121 2014.21 112.286 2029.86Z" fill="white" stroke="black" stroke-width="10"/>
<path fill-rule="evenodd" clip-rule="evenodd" d="M34.6396 2044.86C250.948 2076.84 371.749 2079.88 593.49 2047.77L595.43 2047.02C613.303 2095.93 619.262 2128.85 620.075 2177.88L620.031 2177.88L620.119 2178.49C364.392 2215.37 230.545 2217.77 10.0307 2178.73L10.0672 2178.52L10.0354 2178.52C9.44162 2128.27 16.2613 2093.08 34.3206 2045.2L34.5746 2045.3L34.6396 2044.86Z" fill="black"/>
</svg>
